<svg width="1600" height="37" viewBox="0 0 1600 37" fill="none" xmlns="http://www.w3.org/2000/svg">
<g clip-path="url(#clip0_1378_22047)">
<rect width="1651" height="36" fill="#3A3636"/>
<line y1="32" x2="1651" y2="32" stroke="white" stroke-width="2"/>
<line y1="4.5" x2="1651" y2="4.5" stroke="white"/>
<line x1="40" y1="18" x2="76" y2="18" stroke="white" stroke-width="2"/>
<line x1="115" y1="18" x2="151" y2="18" stroke="white" stroke-width="2"/>
<line x1="190" y1="18" x2="226" y2="18" stroke="white" stroke-width="2"/>
<line x1="265" y1="18" x2="301" y2="18" stroke="white" stroke-width="2"/>
<line x1="340" y1="18" x2="376" y2="18" stroke="white" stroke-width="2"/>
<line x1="415" y1="18" x2="451" y2="18" stroke="white" stroke-width="2"/>
<line x1="490" y1="18" x2="526" y2="18" stroke="white" stroke-width="2"/>
<line x1="565" y1="18" x2="601" y2="18" stroke="white" stroke-width="2"/>
<line x1="640" y1="18" x2="676" y2="18" stroke="white" stroke-width="2"/>
<line x1="715" y1="18" x2="751" y2="18" stroke="white" stroke-width="2"/>
<line x1="790" y1="18" x2="826" y2="18" stroke="white" stroke-width="2"/>
<line x1="865" y1="18" x2="901" y2="18" stroke="white" stroke-width="2"/>
<line x1="940" y1="18" x2="976" y2="18" stroke="white" stroke-width="2"/>
<line x1="1015" y1="18" x2="1051" y2="18" stroke="white" stroke-width="2"/>
<line x1="1090" y1="18" x2="1126" y2="18" stroke="white" stroke-width="2"/>
<line x1="1165" y1="18" x2="1201" y2="18" stroke="white" stroke-width="2"/>
<line x1="1240" y1="18" x2="1276" y2="18" stroke="white" stroke-width="2"/>
<line x1="1315" y1="18" x2="1351" y2="18" stroke="white" stroke-width="2"/>
<line x1="1390" y1="18" x2="1426" y2="18" stroke="white" stroke-width="2"/>
<line x1="1465" y1="18" x2="1501" y2="18" stroke="white" stroke-width="2"/>
<line x1="1540" y1="18" x2="1576" y2="18" stroke="white" stroke-width="2"/>
</g>
<defs>
<clipPath id="clip0_1378_22047">
<rect width="1600" height="37" fill="white"/>
</clipPath>
</defs>
</svg>
